<?xml version="1.0" encoding="utf-8"?>
<!-- Generator: Adobe Illustrator 19.0.0, SVG Export Plug-In . SVG Version: 6.00 Build 0)  -->
<svg version="1.1" id="Layer_1" xmlns="http://www.w3.org/2000/svg" xmlns:xlink="http://www.w3.org/1999/xlink" x="0px" y="0px"
	 viewBox="38 22 195 37" style="enable-background:new 38 22 195 37;" xml:space="preserve">
<style type="text/css">
	.st0{fill:#FFFFFF;}
</style>
<g id="Light">
	<path id="XMLID_14_" class="st0" d="M46.7,45.7v-0.6h8.8v0.6H46.7z M46.9,35.3v-0.6h8.4v0.6H46.9z M48.1,40.2v-0.7h5.7v0.7H48.1
		L48.1,40.2z"/>
	<path id="XMLID_12_" class="st0" d="M59.7,45.7V34.6h0.8V45h6.8v0.7L59.7,45.7L59.7,45.7z"/>
	<path id="XMLID_10_" class="st0" d="M73.9,45.7v-4l-4.4-7h0.9l2.3,3.7c0.3,0.5,0.6,0.8,0.8,1.3c0.3,0.5,0.6,0.9,0.8,1.3h0.1
		c0.3-0.5,0.6-0.9,0.8-1.3c0.3-0.5,0.6-0.8,0.8-1.3l2.2-3.7h0.9l-4.4,7v4H73.9L73.9,45.7z"/>
	<path id="XMLID_8_" class="st0" d="M86.1,45.9c-1,0-1.8-0.2-2.6-0.5c-0.7-0.3-1.4-0.7-1.9-1.2l0.6-0.6c0.5,0.5,1.1,0.8,1.7,1.1
		c0.6,0.3,1.4,0.4,2.2,0.4c1,0,1.8-0.2,2.5-0.6c0.6-0.4,0.9-0.9,0.9-1.6c0-0.4-0.1-0.6-0.2-0.9c-0.1-0.3-0.3-0.5-0.6-0.6
		c-0.2-0.2-0.5-0.4-0.8-0.5s-0.6-0.3-0.9-0.4l-1.9-0.7c-0.3-0.1-0.6-0.2-0.9-0.4c-0.4-0.2-0.6-0.4-0.9-0.6c-0.3-0.2-0.5-0.5-0.6-0.7
		c-0.2-0.3-0.3-0.6-0.3-1.1s0.1-0.7,0.3-1.1c0.2-0.4,0.5-0.6,0.8-0.8c0.4-0.3,0.7-0.5,1.2-0.6s1-0.2,1.6-0.2c0.8,0,1.6,0.1,2.2,0.4
		s1.2,0.6,1.6,0.9l-0.6,0.5c-0.4-0.4-0.8-0.6-1.4-0.8c-0.6-0.2-1.2-0.3-1.8-0.3c-0.9,0-1.6,0.2-2.2,0.6c-0.6,0.4-0.8,0.8-0.8,1.5
		c0,0.4,0.1,0.6,0.2,0.8c0.2,0.2,0.4,0.5,0.6,0.6c0.3,0.2,0.5,0.3,0.7,0.5c0.3,0.1,0.6,0.2,0.8,0.3l1.9,0.7c0.4,0.1,0.7,0.3,1.1,0.5
		c0.4,0.2,0.6,0.4,0.9,0.6s0.5,0.5,0.6,0.8c0.2,0.3,0.2,0.6,0.2,1.1s-0.1,0.8-0.3,1.2c-0.2,0.4-0.5,0.6-0.8,0.9
		c-0.4,0.3-0.8,0.5-1.4,0.6C87.3,45.9,86.8,45.9,86.1,45.9z"/>
	<path id="XMLID_6_" class="st0" d="M95.8,45.7V34.6h0.9v11.1H95.8L95.8,45.7z"/>
	<path id="XMLID_4_" class="st0" d="M102.1,45.7l4.5-11.1h0.9l4.5,11.1h-0.9l-4-10.5l0,0l-4,10.5H102.1z"/>
	<path id="XMLID_1_" class="st0" d="M116.8,45.7V34.6h0.9l5,7.8l1.4,2.2l0,0c0-0.6,0-1.1-0.1-1.6c0-0.6-0.1-1.1-0.1-1.6v-6.8h0.8
		v11.2h-0.9l-5-7.8l-1.4-2.2l0,0c0,0.6,0,1.1,0.1,1.6c0,0.6,0.1,1,0.1,1.6v6.8L116.8,45.7L116.8,45.7L116.8,45.7z"/>
</g>
<g id="Guides">
</g>
<g>
	<path class="st0" d="M139.4,35.1c0,0.1,0,0.2,0,0.3c0,0.1,0,0.1-0.1,0.2l-0.1,0.1h-0.1H135v3.9h3.9h0.1l0.1,0.1c0,0,0,0.1,0.1,0.2
		c0,0.1,0,0.2,0,0.3c0,0.1,0,0.2,0,0.3s0,0.1-0.1,0.2l-0.1,0.1h-0.1H135v4.7v0.1l-0.1,0.1c-0.1,0-0.1,0-0.2,0.1c-0.1,0-0.2,0-0.4,0
		c-0.1,0-0.3,0-0.4,0c-0.1,0-0.2,0-0.2-0.1c-0.1,0-0.1,0-0.1-0.1v-0.1V35.1c0-0.2,0.1-0.4,0.2-0.5c0.1-0.1,0.2-0.1,0.4-0.1h5h0.1
		l0.1,0.1c0,0.1,0,0.1,0.1,0.2C139.4,34.9,139.4,35,139.4,35.1z"/>
	<path class="st0" d="M148.4,45.5L148.4,45.5l-0.1,0.2c-0.1,0-0.1,0-0.2,0.1c-0.1,0-0.2,0-0.4,0c-0.1,0-0.3,0-0.4,0
		c-0.1,0-0.2,0-0.2-0.1c-0.1,0-0.1,0-0.1-0.1v-0.1V34.7v-0.1l0.1-0.1c0.1,0,0.1,0,0.2-0.1c0.1,0,0.2,0,0.3,0s0.3,0,0.4,0
		s0.2,0,0.2,0.1c0.1,0,0.1,0,0.1,0.1v0.1L148.4,45.5L148.4,45.5z"/>
	<path class="st0" d="M165,45.1c0,0.1,0,0.2-0.1,0.3c0,0.1-0.1,0.1-0.2,0.2c-0.1,0.1-0.1,0.1-0.2,0.1c-0.1,0-0.2,0-0.2,0h-0.5
		c-0.2,0-0.3,0-0.4,0c-0.1,0-0.2-0.1-0.3-0.2c-0.1-0.1-0.2-0.2-0.3-0.3c-0.1-0.1-0.2-0.3-0.3-0.6l-3.4-6.4c-0.2-0.3-0.4-0.7-0.5-1
		c-0.2-0.4-0.4-0.7-0.5-1.1l0,0c0,0.4,0,0.8,0,1.3c0,0.4,0,0.9,0,1.3v6.8v0.1l-0.1,0.1c-0.1,0-0.1,0-0.2,0.1c-0.1,0-0.2,0-0.4,0
		c-0.1,0-0.3,0-0.4,0c-0.1,0-0.2,0-0.2-0.1c-0.1,0-0.1,0-0.1-0.1v-0.1V35.1c0-0.2,0.1-0.4,0.2-0.5c0.1-0.1,0.3-0.1,0.4-0.1h0.7
		c0.2,0,0.3,0,0.4,0s0.2,0.1,0.3,0.1c0.1,0.1,0.2,0.2,0.3,0.3c0.1,0.1,0.2,0.3,0.3,0.4l2.6,4.9c0.2,0.3,0.3,0.6,0.5,0.9
		c0.2,0.3,0.3,0.6,0.4,0.8c0.1,0.3,0.3,0.6,0.4,0.8c0.1,0.3,0.3,0.5,0.4,0.8l0,0c0-0.5,0-0.9,0-1.4s0-1,0-1.4v-6.1v-0.1l0.1-0.1
		c0.1,0,0.1,0,0.2-0.1c0.1,0,0.2,0,0.4,0c0.1,0,0.3,0,0.3,0c0.1,0,0.2,0,0.2,0.1c0.1,0,0.1,0.1,0.1,0.1v0.1L165,45.1L165,45.1z"/>
	<path class="st0" d="M181.8,45.2c0,0.1,0.1,0.2,0.1,0.3c0,0.1,0,0.1-0.1,0.2c0,0-0.1,0.1-0.2,0.1c-0.1,0-0.3,0-0.4,0
		c-0.2,0-0.3,0-0.4,0c-0.1,0-0.2,0-0.2,0c-0.1,0-0.1,0-0.1-0.1l-0.1-0.1l-1-2.7h-4.7l-0.9,2.7c0,0.1,0,0.1-0.1,0.1l-0.1,0.1
		c-0.1,0-0.1,0-0.2,0.1c-0.1,0-0.2,0-0.4,0c-0.2,0-0.3,0-0.4,0s-0.2,0-0.2-0.1c0,0-0.1-0.1-0.1-0.2s0-0.2,0.1-0.3l3.8-10.3
		c0-0.1,0.1-0.1,0.1-0.2c0,0,0.1-0.1,0.2-0.1c0.1,0,0.2,0,0.3,0s0.3,0,0.4,0c0.2,0,0.3,0,0.5,0c0.1,0,0.2,0,0.3,0s0.1,0.1,0.2,0.1
		c0,0,0.1,0.1,0.1,0.2L181.8,45.2z M176.9,36L176.9,36l-1.9,5.6h3.9L176.9,36z"/>
	<path class="st0" d="M197.4,45.1c0,0.1,0,0.2-0.1,0.3c0,0.1-0.1,0.1-0.2,0.2c-0.1,0.1-0.1,0.1-0.2,0.1c-0.1,0-0.2,0-0.2,0h-0.5
		c-0.2,0-0.3,0-0.4,0c-0.1,0-0.2-0.1-0.3-0.2c-0.1-0.1-0.2-0.2-0.3-0.3c-0.1-0.1-0.2-0.3-0.3-0.6l-3.4-6.4c-0.2-0.3-0.4-0.7-0.5-1
		c-0.2-0.4-0.4-0.7-0.5-1.1l0,0c0,0.4,0,0.8,0,1.3c0,0.4,0,0.9,0,1.3v6.8v0.1l-0.1,0.1c-0.1,0-0.1,0-0.2,0.1c-0.1,0-0.2,0-0.4,0
		c-0.1,0-0.3,0-0.4,0c-0.1,0-0.2,0-0.2-0.1c-0.1,0-0.1,0-0.1-0.1v-0.1V35.1c0-0.2,0.1-0.4,0.2-0.5c0.1-0.1,0.3-0.1,0.4-0.1h0.7
		c0.2,0,0.3,0,0.4,0c0.1,0,0.2,0.1,0.3,0.1c0.1,0.1,0.2,0.2,0.3,0.3c0.1,0.1,0.2,0.3,0.3,0.4l2.6,4.9c0.2,0.3,0.3,0.6,0.5,0.9
		c0.2,0.3,0.3,0.6,0.4,0.8c0.1,0.3,0.3,0.6,0.4,0.8c0.1,0.3,0.3,0.5,0.4,0.8l0,0c0-0.5,0-0.9,0-1.4s0-1,0-1.4v-6.1v-0.1l0.1-0.1
		c0.1,0,0.1,0,0.2-0.1c0.1,0,0.2,0,0.4,0c0.1,0,0.3,0,0.3,0c0.1,0,0.2,0,0.2,0.1c0.1,0,0.1,0.1,0.1,0.1v0.1L197.4,45.1L197.4,45.1z"
		/>
	<path class="st0" d="M213.1,44.1c0,0.1,0,0.2,0,0.2c0,0.1,0,0.1,0,0.2s0,0.1-0.1,0.1l-0.1,0.1c-0.1,0.1-0.2,0.1-0.4,0.3
		c-0.2,0.1-0.4,0.2-0.7,0.3c-0.3,0.1-0.6,0.2-0.9,0.3c-0.4,0.1-0.7,0.1-1.2,0.1c-0.7,0-1.4-0.1-2-0.4c-0.6-0.2-1.1-0.6-1.5-1.1
		s-0.7-1.1-1-1.8c-0.2-0.7-0.3-1.5-0.3-2.4s0.1-1.8,0.4-2.5c0.2-0.7,0.6-1.3,1-1.9c0.4-0.5,1-0.9,1.6-1.2c0.6-0.3,1.3-0.4,2-0.4
		c0.3,0,0.6,0,0.9,0.1c0.3,0.1,0.6,0.1,0.9,0.2c0.3,0.1,0.5,0.2,0.7,0.3c0.2,0.1,0.3,0.2,0.4,0.3c0.1,0.1,0.1,0.1,0.2,0.2
		c0,0,0,0.1,0.1,0.1c0,0.1,0,0.1,0,0.2s0,0.2,0,0.3c0,0.1,0,0.2,0,0.3c0,0.1,0,0.1-0.1,0.2c0,0.1-0.1,0.1-0.1,0.1h-0.1
		c-0.1,0-0.2-0.1-0.3-0.2c-0.1-0.1-0.3-0.2-0.6-0.4c-0.2-0.1-0.5-0.3-0.8-0.4c-0.3-0.1-0.7-0.2-1.2-0.2c-0.5,0-1,0.1-1.4,0.3
		c-0.4,0.2-0.8,0.5-1.1,0.9c-0.3,0.4-0.5,0.9-0.7,1.4c-0.2,0.6-0.2,1.2-0.2,1.9s0.1,1.3,0.2,1.9c0.2,0.5,0.4,1,0.7,1.4
		c0.3,0.4,0.6,0.6,1.1,0.8c0.4,0.2,0.9,0.3,1.4,0.3c0.4,0,0.8-0.1,1.2-0.2c0.3-0.1,0.6-0.2,0.9-0.4c0.2-0.1,0.4-0.3,0.6-0.4
		c0.2-0.1,0.3-0.2,0.4-0.2h0.1l0.1,0.1c0,0,0,0.1,0,0.2C213.1,43.9,213.1,44,213.1,44.1z"/>
	<path class="st0" d="M226.5,45.1c0,0.1,0,0.2,0,0.3s0,0.1-0.1,0.2c0,0.1-0.1,0.1-0.1,0.1h-0.1h-5.4c-0.1,0-0.3,0-0.4-0.1
		c-0.1-0.1-0.2-0.2-0.2-0.5v-10c0-0.2,0.1-0.4,0.2-0.5c0.1-0.1,0.2-0.1,0.4-0.1h5.3h0.1l0.1,0.1c0,0.1,0,0.1,0.1,0.2
		c0,0.1,0,0.2,0,0.3s0,0.2,0,0.3c0,0.1,0,0.1-0.1,0.2l-0.1,0.1h-0.1h-4.4v3.5h3.8h0.1l0.1,0.1c0,0,0,0.1,0.1,0.2c0,0.1,0,0.2,0,0.3
		s0,0.2,0,0.3c0,0.1,0,0.1-0.1,0.2l-0.1,0.1h-0.1h-3.8v4h4.5h0.1l0.1,0.1c0,0,0,0.1,0.1,0.2C226.5,44.9,226.5,45,226.5,45.1z"/>
</g>
</svg>
